<svg xmlns="http://www.w3.org/2000/svg" viewBox="0 0 42.49 24.62"><defs><style>.cls-1,.cls-2{fill:#f6f6f6;}.cls-2{fill-rule:evenodd;}</style></defs><title>logo</title><g id="Layer_2" data-name="Layer 2"><g id="Layer_1-2" data-name="Layer 1"><path class="cls-1" d="M11.22,21.57l2.67-4.22a2,2,0,0,1,1.6-.9L16.43,15a8.4,8.4,0,0,1-2.83-4.64,8.52,8.52,0,1,1,4.72,5.84l-.95,1.49a1.91,1.91,0,0,1-.14,1.82l-2.68,4.22a2,2,0,0,1-2.75.62,2,2,0,0,1-.58-2.74Zm12.15-6.5a6.79,6.79,0,1,0-8.09-5.15,6.81,6.81,0,0,0,8.09,5.15Z"/><path class="cls-1" d="M17.52,6.7h2.63V4.07A.87.87,0,0,1,21,3.2h1.75a.87.87,0,0,1,.87.87V6.7h2.62a.87.87,0,0,1,.88.87V9.32a.87.87,0,0,1-.88.87H23.64v2.63a.87.87,0,0,1-.87.87H21a.87.87,0,0,1-.87-.87V10.19H17.52a.87.87,0,0,1-.87-.87V7.57a.87.87,0,0,1,.87-.87Z"/><polygon class="cls-2" points="7.21 15.27 0 8.04 7.21 0.82 8.99 2.61 3.57 8.04 8.99 13.48 7.21 15.27 7.21 15.27 7.21 15.27"/><polygon class="cls-2" points="35.28 15.27 33.5 13.48 38.91 8.04 33.5 2.61 35.28 0.82 42.48 8.04 35.28 15.27 35.28 15.27 35.28 15.27"/></g></g></svg>